<?xml version="1.0" encoding="UTF-8"?>
<svg id="Layer_2" xmlns="http://www.w3.org/2000/svg" version="1.1" viewBox="0 0 229.5 53.1">
  <!-- Generator: Adobe Illustrator 30.3.0, SVG Export Plug-In . SVG Version: 2.1.3 Build 182)  -->
  <defs>
    <style>
      .st0 {
        fill: #231f20;
      }
    </style>
  </defs>
  <g id="Layer_1-2">
    <g>
      <path class="st0" d="M54.9,16.6s-3.3-.3-3.6-.4c-1.2-.2-2.5-.4-3.7-.6-2.5-.5-4.9-1.2-7.2-2.2-2.3-1-4.5-2.3-6.5-3.9-.5-.4-1-.9-1.5-1.4-.4-.4-.9-.6-.8-1.3,0-.6.9-.5,1.3-.6,1.4-.3,2.8-.6,4.2-.8,3.1-.4,6.3-.3,9.4-.1.6,0,1.2,0,1.8.1.5,0,1.8.1,1.8.1,0,0,.8.8,1.2,1.7,0-.2-1.8-.2-2-.2-1.8-.1-3.6-.3-5.4-.3-.8,0-1.5,0-2.3,0-.5,0-1.6,0-1.7.7,0,.3-.2.8-.2,1,0,.2.3.4.5.5.4.4.9.7,1.3,1,1,.6,2.1,1.2,3.2,1.5l9.7,2.9s.3.6.4,1.1c.1.4,0,.9,0,.9h0ZM2.3,42c.6,1.1,1.4,2,1.4,2l18.5-4.7c6.3-1.6,25.9-8.1,28.5-11.6,1.2-1.6.7-3.7-1-4.7C34.7,14.3,20,9.1,2.5,9h0c-.5.9-1,1.8-1.2,2.8h0c10.5,1.6,20.7,3.3,30.9,5.5,4,.9,11.4,4,11.3,7.3,0,1.9-1.6,3.4-3.3,4C27.7,33.2,1.5,40,1.5,40c0,0,.2.8.8,2h0ZM17.8,31.3c1.5-.3,3-.8,4.4-1.3,2.3-.7,4.5-1.4,6.8-2.2,1.1-.4,2.3-.8,3.4-1.2.7-.2,1.5-.4,2-.9.7-.7.2-1.5-.5-2-.4-.3-1.1-.4-1.6-.6-.6-.2-1.1-.4-1.7-.6-1.1-.4-2.2-.8-3.4-1.1-2.2-.7-4.5-1.4-6.8-1.9-6.7-1.5-13.2-2.6-20.2-3.2,0,0-.1.4-.1.8s0,.6,0,.6c8.4,1.3,16.5,3,24.8,5.2.8.2,1.6,1.1,1.6,1.6s-.6,1.9-1.2,2.1C17,29.3,8.6,31,0,32c0,1.2.2,2.2.4,3.2,0,0,17.4-4,17.4-4h0ZM30,8.2c-.5-1.4.5-2.8,1.9-3.2,5.2-1.6,10.3-1.7,15.9-1.5l-1.6-1.2c-5.6,0-11,.3-16.5,1.1l-13.5,2.1c-3.7.6-11.6.8-11.6.8,0,0-.5.4-.5,1,12.9.2,24,3.6,35.7,8.3-3.5-2.1-7.1-3.9-9.7-7.2h0ZM40.8,26.8c3.8-1.4-1.9-5.7-7.9-7.4-5.4-1.5-10.7-2.5-16.2-3.2-5.5-.7-10.7-2.3-16.3-2,11.9,1.4,23.1,3.6,34.1,7.8,1.4.5,2.2,1.7,1.5,3.2-.4.9-1.2,2.1-2.3,2.5-10.7,3.9-21.5,7-33,8.9,0,.6.2,1.2.5,2.1l21.8-5.8c6.2-1.6,11.8-3.9,17.8-6.1h0ZM50.8,44.6l1.8-3c-9.9-.2-18.6,2.6-27.9,5.9l-11.2,4c1.2.4,2.9.9,4.2,1.1l11.1-4.7c7.8-3.3,13.9-3.2,22-3.3ZM43.2.2L35.3,0,12.1.2c-2.3,1-4.3,2.5-6.1,4.3,11-.2,21.4-2.8,32.7-3.8l4.5-.4h0ZM0,30.4c2.3-.3,4.7-.7,7-1.1,3.1-.5,6.3-1.2,9.4-1.9,1.6-.4,3.1-.7,4.6-1.1.8-.2,1.5-.4,2.3-.6.4-.1.8-.1,1.2-.3.2-.1.3-.4,0-.6-.2-.1-.5-.2-.7-.3-.5-.2-.9-.3-1.4-.4-7.5-1.8-14.9-3.2-22.5-4.5v1.9c0,.1,3.1.6,3.4.6,1.1.2,2.3.5,3.4.7,2.3.5,4.6,1.1,6.8,1.9.4.1.9.3,1.1.8.2.5-.1,1.2-.4,1.6-.5.7-1.6.9-2.5,1-1.5.2-3.1.1-4.6.2-1.2,0-2.4,0-3.6,0-1.2,0-2.5,0-3.7,0,0,0,0,2.1,0,2.1ZM47.6,48l1.5-1.5-8.2.2c-3.9,0-7.7.9-11.3,2.4l-8.9,3.7h5.3s1.2-.4,2.5-.8c6.4-2,12.6-3.3,19.1-4ZM32.7,43.3c6.8-2.4,13.7-3.6,20.9-3.6l.4-1.2c-15.8-1-28.8,7.1-43.3,11.8.4.2,1,.6,1,.6,0,0,1.1-.6,1.6-.8l19.4-6.8h0ZM0,23.2v3.5s12.5-.3,12.5-.3c-4.4-1.5-8.3-2.2-12.6-3.1h0ZM43.4,8.9c3.7,1.6,6.9,2.5,10.4,3.4v-.2c-.3-.9-.7-1.8-1.1-2.6h0c-3.5-.4-6.2-.7-9.3-.6h0ZM29.9,53c2.3.2,6.2-.1,8.2-.5s4.1-1.1,5.9-2.3c-4.4.5-10.2,1.7-14.2,2.8h0ZM45.4,17.1c-3.2-.8-6.3-2-9.1-3.7-1.3-.8-2.1-1.3-2.1-1.3l-1,.9c2,.5,5.1,1.9,7.8,3.1,3.3,1.6,7.1,3.4,10.2,5.4,1.3.8,1.9,2.6,1.6,4-.5,2.8-2.4,4.8-4.9,6-13.6,6.4-28.6,10.4-43.2,13.7,1.4,1.7,2.7,2.8,4.3,4,15.6-4.5,29.1-13.8,45.5-12.5.1-.6.4-1.4.4-1.9v-16.1c-3-.1-6.2-.7-9.4-1.6Z"/>
      <g>
        <path class="st0" d="M79.5,6.5c4.8,0,8.4,2.4,8.4,6.9v3.1c0,4.4-3.6,6.8-8.4,6.8h-.7c-4.9,0-8.6-2.4-8.6-6.8v-3.1c0-4.4,3.7-6.9,8.6-6.9,0,0,.7,0,.7,0ZM75.1,13.5v2.8c0,1.8,1.3,2.8,3.7,2.8h.6c2.4,0,3.7-1,3.7-2.8v-2.8c0-1.8-1.3-2.8-3.7-2.8h-.6c-2.4,0-3.7,1-3.7,2.8Z"/>
        <path class="st0" d="M93.8,6.8l1.9,12h.8l1.8-12h7.6l1.8,12h.8l1.9-12h4.2l-2.6,16.3h-7.9l-1.8-12h-.7l-1.8,12h-7.8l-2.6-16.3h4.6,0Z"/>
        <path class="st0" d="M124.2,6.5c4.6,0,7.6,1.7,7.6,5.2v.5h-4.7v-.5c0-1.1-1.1-1.6-3-1.6h-.4c-1.9,0-2.9.4-2.9,1.1v.2c0,.9.8,1.2,4.8,1.8,4.6.8,6.5,2.2,6.5,5v.2c0,2.9-2.6,4.9-7.8,4.9h-.5c-5.3,0-8-2-8-5.5v-.4h4.7v.4c0,1.5,1.2,1.9,3.3,1.9h.4c1.9,0,3.1-.4,3.1-1.1v-.2c0-.8-1.1-1.2-5-1.8-4.2-.6-6.2-2-6.2-4.8v-.3c0-3.2,2.9-4.9,7.7-4.9h.5,0Z"/>
        <path class="st0" d="M139.1,6.8v6h6.6v-6h4.8v16.3h-4.8v-6.4h-6.6v6.4h-4.8V6.8h4.8Z"/>
        <path class="st0" d="M165.5,6.8l5.9,16.3h-4.7l-1.1-3h-7.6l-1.1,3h-4.5l5.9-16.3h7.2ZM159.3,16.2h4.9l-2-5.5h-.9l-2,5.5Z"/>
        <path class="st0" d="M181.8,6.8c5,0,8.1,1.9,8.1,7v2.4c0,4.9-3,6.9-8.1,6.9h-8.6V6.8h8.6ZM177.9,19.1h3.8c2.4,0,3.2-.9,3.2-2.9v-2.4c0-2.1-.8-3.1-3.2-3.1h-3.8v8.4Z"/>
        <path class="st0" d="M197.2,6.8v6h6.6v-6h4.8v16.3h-4.8v-6.4h-6.6v6.4h-4.8V6.8h4.8Z"/>
        <path class="st0" d="M223.6,6.8l5.9,16.3h-4.7l-1.1-3h-7.6l-1.1,3h-4.5l5.9-16.3h7.2ZM217.4,16.2h4.9l-2-5.5h-.9l-2,5.5Z"/>
        <path class="st0" d="M82.1,27.7v4h-3.5v8.4h3.5v4h-11.9v-4h3.5v-8.4h-3.5v-4h11.9Z"/>
        <path class="st0" d="M90.8,27.7l6.4,9.9h.6v-9.9h4.4v16.3h-6.1l-6.4-9.9h-.5v9.9h-4.4v-16.3s6.1,0,6.1,0Z"/>
        <path class="st0" d="M120.5,27.7v4h-5.9v12.4h-4.8v-12.4h-5.9v-4h16.6Z"/>
        <path class="st0" d="M136.6,27.7v3.9h-9.5v2.2h8.4v3.7h-8.3v2.6h9.7v3.9h-14.5v-16.3s14.3,0,14.3,0Z"/>
        <path class="st0" d="M149.6,27.7c3.6,0,5.7,2,5.7,4.9v.9c0,2-.9,3.5-2.5,4.3l3.1,6.2h-5.2l-2.8-5.5h-3.8v5.5h-4.8v-16.3h10.3ZM144.2,34.7h4.6c1.1,0,1.8-.5,1.8-1.5v-.4c0-.9-.6-1.4-1.8-1.4h-4.6v3.3Z"/>
        <path class="st0" d="M169.3,27.7v4h-3.5v8.4h3.5v4h-11.9v-4h3.5v-8.4h-3.5v-4h11.9Z"/>
        <path class="st0" d="M180.7,27.5c4.8,0,8.4,2.4,8.4,6.9v3.1c0,4.4-3.6,6.8-8.4,6.8h-.7c-4.9,0-8.6-2.4-8.6-6.8v-3.1c0-4.4,3.6-6.9,8.6-6.9h.7ZM176.3,34.5v2.8c0,1.8,1.3,2.8,3.7,2.8h.6c2.4,0,3.7-1,3.7-2.8v-2.8c0-1.8-1.3-2.8-3.7-2.8h-.6c-2.4,0-3.7,1-3.7,2.8Z"/>
        <path class="st0" d="M201.9,27.7c3.6,0,5.7,2,5.7,4.9v.9c0,2-.9,3.5-2.5,4.3l3.1,6.2h-5.2l-2.8-5.5h-3.8v5.5h-4.8v-16.3h10.3ZM196.4,34.7h4.6c1.1,0,1.8-.5,1.8-1.5v-.4c0-.9-.6-1.4-1.8-1.4h-4.6v3.3Z"/>
      </g>
    </g>
  </g>
</svg>